<?xml version="1.0" standalone="no"?>
<!DOCTYPE svg PUBLIC "-//W3C//DTD SVG 20010904//EN"
 "http://www.w3.org/TR/2001/REC-SVG-20010904/DTD/svg10.dtd">
<svg version="1.0" xmlns="http://www.w3.org/2000/svg"
 width="152.000000pt" height="65.000000pt" viewBox="0 0 152.000000 65.000000"
 preserveAspectRatio="xMidYMid meet">

<g transform="translate(0.000000,65.000000) scale(0.100000,-0.100000)"
fill="#000000" stroke="none">
<path d="M325 509 c-74 -45 -51 -115 46 -143 32 -10 44 -18 44 -32 0 -25 -47
-31 -68 -10 -9 9 -29 16 -46 16 -29 0 -30 -1 -19 -26 15 -33 57 -54 108 -54
33 0 48 6 71 29 51 52 30 100 -56 124 -38 11 -51 19 -53 35 -3 19 2 22 28 22
18 0 33 -6 36 -15 7 -16 74 -22 74 -6 0 6 -10 22 -23 37 -18 21 -34 27 -73 31
-28 2 -58 -2 -69 -8z"/>
<path d="M530 390 l0 -130 35 0 35 0 0 95 c0 90 1 96 23 104 45 17 56 -1 59
-102 l3 -92 33 -3 32 -3 0 106 c0 99 -2 107 -25 130 -28 28 -70 32 -102 10
-19 -13 -22 -13 -27 0 -3 9 -18 15 -36 15 l-30 0 0 -130z"/>
<path d="M845 509 c-25 -15 -45 -39 -45 -56 0 -18 55 -17 70 2 15 18 42 19 58
3 23 -23 12 -35 -39 -42 -67 -9 -104 -43 -95 -89 11 -57 75 -84 129 -56 16 9
22 9 25 0 2 -6 17 -11 34 -11 l30 0 -4 105 c-3 91 -6 108 -25 126 -25 25 -107
36 -138 18z m95 -154 c0 -32 -41 -55 -65 -35 -31 25 -7 59 43 60 17 0 22 -6
22 -25z"/>
<path d="M1060 345 l0 -175 35 0 35 0 0 54 0 54 30 -11 c68 -26 123 32 123
130 0 90 -56 141 -126 115 -21 -8 -33 -9 -35 -2 -2 5 -17 10 -33 10 l-29 0 0
-175z m140 105 c21 -21 26 -63 11 -103 -12 -30 -36 -40 -62 -27 -27 15 -28
124 -1 139 24 15 29 14 52 -9z"/>
</g>
</svg>
